<mxfile host="app.diagrams.net" agent="Mozilla/5.0 (X11; Linux x86_64; rv:131.0) Gecko/20100101 Firefox/131.0" version="24.8.6">
  <diagram name="Страница — 1" id="xHiloB-PAs2DJY3SMgmK">
    <mxGraphModel dx="2187" dy="938" grid="1" gridSize="10" guides="1" tooltips="1" connect="1" arrows="1" fold="1" page="1" pageScale="1" pageWidth="827" pageHeight="1169" math="0" shadow="0">
      <root>
        <mxCell id="0" />
        <mxCell id="1" parent="0" />
        <mxCell id="mRhScEX_D-qCn4AypCOc-1" value="" style="strokeWidth=1;shadow=0;dashed=0;align=center;html=1;shape=mxgraph.mockup.containers.browserWindow;rSize=0;strokeColor=#666666;strokeColor2=#008cff;strokeColor3=#c4c4c4;mainText=,;recursiveResize=0;" vertex="1" parent="1">
          <mxGeometry x="50" y="10" width="840" height="740" as="geometry" />
        </mxCell>
        <mxCell id="mRhScEX_D-qCn4AypCOc-2" value="KoloOnline" style="strokeWidth=1;shadow=0;dashed=0;align=center;html=1;shape=mxgraph.mockup.containers.anchor;fontSize=17;fontColor=#666666;align=left;whiteSpace=wrap;" vertex="1" parent="mRhScEX_D-qCn4AypCOc-1">
          <mxGeometry x="60" y="12" width="110" height="26" as="geometry" />
        </mxCell>
        <mxCell id="mRhScEX_D-qCn4AypCOc-3" value="https://www.koloonline.com" style="strokeWidth=1;shadow=0;dashed=0;align=center;html=1;shape=mxgraph.mockup.containers.anchor;rSize=0;fontSize=17;fontColor=#666666;align=left;" vertex="1" parent="mRhScEX_D-qCn4AypCOc-1">
          <mxGeometry x="130" y="60" width="250" height="26" as="geometry" />
        </mxCell>
        <mxCell id="mRhScEX_D-qCn4AypCOc-4" value="" style="strokeWidth=1;shadow=0;dashed=0;align=center;html=1;shape=mxgraph.mockup.forms.rrect;rSize=0;strokeColor=#999999;fillColor=#ffffff;" vertex="1" parent="mRhScEX_D-qCn4AypCOc-1">
          <mxGeometry x="300" y="270" width="220" height="265" as="geometry" />
        </mxCell>
        <mxCell id="mRhScEX_D-qCn4AypCOc-5" value="&lt;div&gt;Login&lt;/div&gt;" style="strokeWidth=1;shadow=0;dashed=0;align=center;html=1;shape=mxgraph.mockup.forms.anchor;fontSize=12;fontColor=#666666;align=left;resizeWidth=1;spacingLeft=0;" vertex="1" parent="mRhScEX_D-qCn4AypCOc-4">
          <mxGeometry width="40" height="20" relative="1" as="geometry">
            <mxPoint x="50" y="46" as="offset" />
          </mxGeometry>
        </mxCell>
        <mxCell id="mRhScEX_D-qCn4AypCOc-6" value="" style="shape=line;strokeColor=#ddeeff;strokeWidth=2;html=1;resizeWidth=1;" vertex="1" parent="mRhScEX_D-qCn4AypCOc-4">
          <mxGeometry width="60" height="10" relative="1" as="geometry">
            <mxPoint x="34" y="65" as="offset" />
          </mxGeometry>
        </mxCell>
        <mxCell id="mRhScEX_D-qCn4AypCOc-7" value="Email" style="strokeWidth=1;shadow=0;dashed=0;align=center;html=1;shape=mxgraph.mockup.forms.anchor;fontSize=12;fontColor=#666666;align=left;resizeWidth=1;spacingLeft=0;" vertex="1" parent="mRhScEX_D-qCn4AypCOc-4">
          <mxGeometry width="110.00000000000001" height="20" relative="1" as="geometry">
            <mxPoint x="28" y="85" as="offset" />
          </mxGeometry>
        </mxCell>
        <mxCell id="mRhScEX_D-qCn4AypCOc-8" value="johndoe" style="strokeWidth=1;shadow=0;dashed=0;align=center;html=1;shape=mxgraph.mockup.forms.rrect;rSize=0;strokeColor=#999999;fontColor=#666666;align=left;spacingLeft=5;resizeWidth=1;" vertex="1" parent="mRhScEX_D-qCn4AypCOc-4">
          <mxGeometry width="165" height="25" relative="1" as="geometry">
            <mxPoint x="28" y="105" as="offset" />
          </mxGeometry>
        </mxCell>
        <mxCell id="mRhScEX_D-qCn4AypCOc-9" value="Password:" style="strokeWidth=1;shadow=0;dashed=0;align=center;html=1;shape=mxgraph.mockup.forms.anchor;fontSize=12;fontColor=#666666;align=left;resizeWidth=1;spacingLeft=0;" vertex="1" parent="mRhScEX_D-qCn4AypCOc-4">
          <mxGeometry width="110.00000000000001" height="20" relative="1" as="geometry">
            <mxPoint x="28" y="145" as="offset" />
          </mxGeometry>
        </mxCell>
        <mxCell id="mRhScEX_D-qCn4AypCOc-10" value="********" style="strokeWidth=1;shadow=0;dashed=0;align=center;html=1;shape=mxgraph.mockup.forms.rrect;rSize=0;strokeColor=#999999;fontColor=#666666;align=left;spacingLeft=5;resizeWidth=1;" vertex="1" parent="mRhScEX_D-qCn4AypCOc-4">
          <mxGeometry width="165" height="25" relative="1" as="geometry">
            <mxPoint x="28" y="165" as="offset" />
          </mxGeometry>
        </mxCell>
        <mxCell id="mRhScEX_D-qCn4AypCOc-11" value="Login" style="strokeWidth=1;shadow=0;dashed=0;align=center;html=1;shape=mxgraph.mockup.forms.rrect;rSize=5;strokeColor=none;fontColor=#ffffff;fillColor=#66bbff;fontSize=16;fontStyle=1;" vertex="1" parent="mRhScEX_D-qCn4AypCOc-4">
          <mxGeometry y="1" width="80" height="30" relative="1" as="geometry">
            <mxPoint x="70" y="-60" as="offset" />
          </mxGeometry>
        </mxCell>
        <mxCell id="mRhScEX_D-qCn4AypCOc-16" value="Register" style="strokeWidth=1;shadow=0;dashed=0;align=center;html=1;shape=mxgraph.mockup.forms.anchor;fontSize=12;fontColor=#666666;align=left;resizeWidth=1;spacingLeft=0;" vertex="1" parent="mRhScEX_D-qCn4AypCOc-4">
          <mxGeometry x="129" y="48.35714285714286" width="40" height="15.142857142857142" as="geometry" />
        </mxCell>
        <mxCell id="mRhScEX_D-qCn4AypCOc-17" value="&lt;font style=&quot;font-size: 18px;&quot;&gt;KoloOnline&lt;/font&gt;" style="strokeWidth=1;shadow=0;dashed=0;align=center;html=1;shape=mxgraph.mockup.forms.anchor;fontSize=12;fontColor=#666666;align=left;resizeWidth=1;spacingLeft=0;" vertex="1" parent="mRhScEX_D-qCn4AypCOc-4">
          <mxGeometry x="70" y="15" width="59" height="15.14" as="geometry" />
        </mxCell>
      </root>
    </mxGraphModel>
  </diagram>
</mxfile>
